<?xml version="1.0" encoding="UTF-8"?>
<svg xmlns="http://www.w3.org/2000/svg" width="512" height="512" viewBox="0 0 512 512">
<defs></defs>
<path d="M 387.99 392.67 L 380.62 399.42 L 372.92 405.77 L 364.89 411.7 L 356.56 417.21 L 347.95 422.27 L 339.09 426.87 L 330.0 431.0 L 320.7 434.64 L 311.23 437.8 L 301.6 440.45 L 291.85 442.59 L 282.0 444.21 L 272.08 445.32 L 262.11 445.9 L 252.13 445.96 L 242.15 445.49 L 232.22 444.51 L 222.35 443.0 L 212.57 440.97 L 202.91 438.43 L 193.4 435.39 L 184.07 431.86 L 174.93 427.83 L 166.01 423.34 L 157.35 418.38 L 148.95 412.97 L 140.85 407.13 L 133.07 400.88 L 125.63 394.22 L 118.55 387.18 L 111.85 379.78 L 105.55 372.03 L 99.66 363.97 L 94.2 355.61 L 89.19 346.97 L 84.65 338.08 L 80.57 328.97 L 76.98 319.65 L 73.88 310.16 L 71.29 300.52 L 69.21 290.75 L 67.64 280.89 L 66.59 270.96 L 66.07 260.99 L 66.07 251.01 L 66.59 241.04 L 67.64 231.11 L 69.21 221.25 L 71.29 211.48 L 73.88 201.84 L 76.98 192.35 L 80.57 183.03 L 84.65 173.92 L 89.19 165.03 L 94.2 156.39 L 99.66 148.03 L 105.55 139.97 L 111.85 132.22 L 118.55 124.82 L 125.63 117.78 L 133.07 111.12 L 140.85 104.87 L 148.95 99.03 L 157.35 93.62 L 166.01 88.66 L 174.93 84.17 L 184.07 80.14 L 193.4 76.61 L 202.91 73.57 L 212.57 71.03 L 222.35 69.0 L 232.22 67.49 L 242.15 66.51 L 252.13 66.04 L 262.11 66.1 L 272.08 66.68 L 282.0 67.79 L 291.85 69.41 L 301.6 71.55 L 311.23 74.2 L 320.7 77.36 L 330.0 81.0 L 339.09 85.13 L 347.95 89.73 L 356.56 94.79 L 364.89 100.3 L 372.92 106.23 L 380.62 112.58 L 387.99 119.33 L 343.53 165.36 L 338.64 160.89 L 333.53 156.68 L 328.21 152.74 L 322.69 149.09 L 316.98 145.74 L 311.1 142.69 L 305.07 139.95 L 298.91 137.53 L 292.63 135.44 L 286.24 133.68 L 279.78 132.26 L 273.24 131.19 L 266.66 130.45 L 260.05 130.07 L 253.43 130.03 L 246.82 130.34 L 240.23 130.99 L 233.68 131.99 L 227.2 133.34 L 220.79 135.02 L 214.49 137.03 L 208.3 139.38 L 202.24 142.05 L 196.32 145.03 L 190.58 148.32 L 185.01 151.9 L 179.64 155.77 L 174.48 159.92 L 169.55 164.34 L 164.85 169.01 L 160.41 173.92 L 156.23 179.05 L 152.32 184.4 L 148.7 189.94 L 145.38 195.67 L 142.36 201.57 L 139.66 207.61 L 137.28 213.79 L 135.23 220.08 L 133.51 226.48 L 132.13 232.95 L 131.09 239.49 L 130.39 246.08 L 130.04 252.69 L 130.04 259.31 L 130.39 265.92 L 131.09 272.51 L 132.13 279.05 L 133.51 285.52 L 135.23 291.92 L 137.28 298.21 L 139.66 304.39 L 142.36 310.43 L 145.38 316.33 L 148.7 322.06 L 152.32 327.6 L 156.23 332.95 L 160.41 338.08 L 164.85 342.99 L 169.55 347.66 L 174.48 352.08 L 179.64 356.23 L 185.01 360.1 L 190.58 363.68 L 196.32 366.97 L 202.24 369.95 L 208.3 372.62 L 214.49 374.97 L 220.79 376.98 L 227.2 378.66 L 233.68 380.01 L 240.23 381.01 L 246.82 381.66 L 253.43 381.97 L 260.05 381.93 L 266.66 381.55 L 273.24 380.81 L 279.78 379.74 L 286.24 378.32 L 292.63 376.56 L 298.91 374.47 L 305.07 372.05 L 311.1 369.31 L 316.98 366.26 L 322.69 362.91 L 328.21 359.26 L 333.53 355.32 L 338.64 351.11 L 343.53 346.64 Z" fill="#0B1E39" fill-rule="evenodd"/>
<path d="M 342.0 176.0 L 345.47 176.3 L 348.84 177.21 L 352.0 178.68 L 354.86 180.68 L 357.32 183.14 L 359.32 186.0 L 360.79 189.16 L 361.7 192.53 L 362.0 196.0 L 362.0 202.0 L 361.7 205.47 L 360.79 208.84 L 359.32 212.0 L 357.32 214.86 L 354.86 217.32 L 352.0 219.32 L 348.84 220.79 L 345.47 221.7 L 342.0 222.0 L 170.0 222.0 L 166.53 221.7 L 163.16 220.79 L 160.0 219.32 L 157.14 217.32 L 154.68 214.86 L 152.68 212.0 L 151.21 208.84 L 150.3 205.47 L 150.0 202.0 L 150.0 196.0 L 150.3 192.53 L 151.21 189.16 L 152.68 186.0 L 154.68 183.14 L 157.14 180.68 L 160.0 178.68 L 163.16 177.21 L 166.53 176.3 L 170.0 176.0 Z" fill="#14B8A6" fill-rule="evenodd"/>
<path d="M 260.0 176.0 L 263.47 176.3 L 266.84 177.21 L 270.0 178.68 L 272.86 180.68 L 275.32 183.14 L 277.32 186.0 L 278.79 189.16 L 279.7 192.53 L 280.0 196.0 L 280.0 324.0 L 279.7 327.47 L 278.79 330.84 L 277.32 334.0 L 275.32 336.86 L 272.86 339.32 L 270.0 341.32 L 266.84 342.79 L 263.47 343.7 L 260.0 344.0 L 252.0 344.0 L 248.53 343.7 L 245.16 342.79 L 242.0 341.32 L 239.14 339.32 L 236.68 336.86 L 234.68 334.0 L 233.21 330.84 L 232.3 327.47 L 232.0 324.0 L 232.0 196.0 L 232.3 192.53 L 233.21 189.16 L 234.68 186.0 L 236.68 183.14 L 239.14 180.68 L 242.0 178.68 L 245.16 177.21 L 248.53 176.3 L 252.0 176.0 Z" fill="#14B8A6" fill-rule="evenodd"/>
<path d="M 387.99 392.67 L 386.96 393.65 L 385.93 394.63 L 384.9 395.59 L 383.85 396.55 L 382.8 397.5 L 381.74 398.44 L 380.68 399.37 L 379.61 400.3 L 378.53 401.21 L 377.44 402.12 L 376.35 403.02 L 375.25 403.92 L 374.15 404.8 L 373.03 405.68 L 371.92 406.54 L 370.79 407.4 L 369.66 408.25 L 368.52 409.1 L 367.38 409.93 L 366.23 410.76 L 365.07 411.57 L 363.91 412.38 L 362.74 413.18 L 361.57 413.97 L 360.39 414.76 L 359.2 415.53 L 358.01 416.29 L 356.81 417.05 L 355.61 417.8 L 354.4 418.53 L 353.19 419.26 L 351.97 419.98 L 350.74 420.69 L 349.51 421.4 L 348.28 422.09 L 347.04 422.77 L 345.79 423.44 L 344.54 424.11 L 343.29 424.76 L 342.03 425.41 L 340.76 426.05 L 339.49 426.67 L 338.22 427.29 L 336.94 427.9 L 335.66 428.5 L 334.37 429.09 L 333.08 429.66 L 331.78 430.23 L 330.48 430.79 L 329.17 431.34 L 327.87 431.88 L 326.55 432.42 L 325.24 432.94 L 323.92 433.45 L 322.59 433.95 L 321.26 434.44 L 319.93 434.92 L 318.6 435.39 L 317.26 435.85 L 315.92 436.31 L 314.57 436.75 L 313.22 437.18 L 311.87 437.6 L 310.52 438.01 L 309.16 438.41 L 307.8 438.8 L 306.43 439.18 L 305.07 439.55 L 303.7 439.92 L 302.33 440.27 L 300.95 440.61 L 299.58 440.94 L 298.2 441.26 L 296.81 441.56 L 295.43 441.86 L 294.04 442.15 L 292.66 442.43 L 291.27 442.7 L 289.87 442.96 L 288.48 443.2 L 287.08 443.44 L 285.69 443.67 L 284.29 443.88 L 282.89 444.09 L 281.48 444.28 L 280.08 444.47 L 278.67 444.64 L 277.27 444.81 L 275.86 444.96 L 269.17 381.31 L 270.1 381.21 L 271.04 381.1 L 271.97 380.98 L 272.9 380.86 L 273.83 380.73 L 274.76 380.6 L 275.69 380.45 L 276.61 380.3 L 277.54 380.15 L 278.46 379.98 L 279.39 379.81 L 280.31 379.63 L 281.23 379.45 L 282.15 379.26 L 283.07 379.06 L 283.98 378.85 L 284.9 378.64 L 285.81 378.42 L 286.72 378.2 L 287.63 377.96 L 288.54 377.73 L 289.45 377.48 L 290.35 377.23 L 291.25 376.97 L 292.15 376.7 L 293.05 376.43 L 293.95 376.15 L 294.84 375.86 L 295.73 375.57 L 296.62 375.27 L 297.51 374.97 L 298.4 374.65 L 299.28 374.33 L 300.16 374.01 L 301.04 373.68 L 301.91 373.34 L 302.79 372.99 L 303.66 372.64 L 304.53 372.28 L 305.39 371.92 L 306.25 371.54 L 307.11 371.17 L 307.97 370.78 L 308.82 370.39 L 309.68 370.0 L 310.52 369.59 L 311.37 369.18 L 312.21 368.77 L 313.05 368.35 L 313.88 367.92 L 314.72 367.48 L 315.55 367.04 L 316.37 366.6 L 317.19 366.14 L 318.01 365.68 L 318.83 365.22 L 319.64 364.75 L 320.45 364.27 L 321.25 363.79 L 322.06 363.3 L 322.85 362.8 L 323.65 362.3 L 324.44 361.79 L 325.22 361.28 L 326.01 360.76 L 326.79 360.24 L 327.56 359.71 L 328.33 359.17 L 329.1 358.63 L 329.86 358.08 L 330.62 357.53 L 331.37 356.97 L 332.12 356.4 L 332.87 355.83 L 333.61 355.26 L 334.35 354.68 L 335.08 354.09 L 335.81 353.5 L 336.54 352.9 L 337.26 352.3 L 337.97 351.69 L 338.68 351.08 L 339.39 350.46 L 340.09 349.83 L 340.79 349.21 L 341.48 348.57 L 342.17 347.93 L 342.85 347.29 L 343.53 346.64 Z" fill="#14B8A6" fill-rule="evenodd"/>
</svg>